# xmcd CD database file
#
# Track frame offsets:
#	150
#	15153
#	30043
#	48936
#	65757
#	84055
#	102048
#	126016
#	142549
#	159730
#	177545
#
# Disc length: 2659 seconds
#
# Revision: 5
# Processed by: cddbd v1.4PL0 Copyright (c) Steve Scherf et al.
# Submitted via: CDex 1.50beta9
#
DISCID=730a610b
DTITLE=Totta Näslund - Totta 3
DYEAR=1900
DGENRE=Visor
TTITLE0=Den röda klänningen
TTITLE1=Hjärtat är ett trubbigt instrument
TTITLE2=En dåre som jag
TTITLE3=Familjelycka
TTITLE4=Maria
TTITLE5=Femton minuter
TTITLE6=Fyra år
TTITLE7=Lögner och porslin
TTITLE8=Stort att vara liten
TTITLE9=Allt jag gör för dig
TTITLE10=Jungman Jansson
EXTD=
EXTT0=
EXTT1=
EXTT2=
EXTT3=
EXTT4=
EXTT5=
EXTT6=
EXTT7=
EXTT8=
EXTT9=
EXTT10=
PLAYORDER=
